# xmcd
#
# Track frame offsets:
#	151
#	19207
#	32962
#	58134
#	77934
#	99339
#	114339
#	132202
#	151989
#	168737
#	183247
#	200217
#	221169
#
# Disc length: 3145 seconds
#
# Revision: 0
# Processed by: cddbd v1.5.2PL0 Copyright (c) Steve Scherf et al.
# Submitted via: EasyCDDAExtractor 10.0.1.1
#
DISCID=bb0c470d
DTITLE=Various Artist - A Tribute To Howlin' Wolf
DYEAR=1998
DGENRE=Blues
TTITLE0=Taj Mahal and Hubert Sumlin - Saddle My Pony
TTITLE1=Chrisine Ohlman - Eddie Shaw and Hubert Sumlin - Howlin' for My Darling
TTITLE2=Kenny Neal and Hubert Sumlin - The Red Rooster
TTITLE3=Colin Linden - James Cotton and Hubert Sumlin - Just Like I Treat You
TTITLE4=Eddie Shaw and Hubert Sumlin - Built for Comfort
TTITLE5=Debbie Davis and Hubert Sumlin - Ooh Baby (Hold Me)
TTITLE6=Cub Koda - Lucky Peterson and Hubert Sumlin - Riding in the Moonlight
TTITLE7=Ronnie Hawkins - Cub Koda and Hubert Sumlin - Back Door Man
TTITLE8=Sam Lay and Hubert Sumlin - Baby How Long
TTITLE9=Hubert Sumlin - Killing Floor
TTITLE10=Colin James - Cub Koda and Hubert Sumlin - Howlin' Wolf Boogie
TTITLE11=Henry Gray and Hubert Sumlin - Smokestack lightnin'
TTITLE12=Lucinda Williams - Come to Me Baby
EXTD=
EXTT0=
EXTT1=
EXTT2=
EXTT3=
EXTT4=
EXTT5=
EXTT6=
EXTT7=
EXTT8=
EXTT9=
EXTT10=
EXTT11=
EXTT12=
PLAYORDER=
